<?xml version="1.0" standalone="no"?>
<!DOCTYPE svg PUBLIC "-//W3C//DTD SVG 20010904//EN"
 "http://www.w3.org/TR/2001/REC-SVG-20010904/DTD/svg10.dtd">
<svg version="1.0" xmlns="http://www.w3.org/2000/svg"
 width="700.000000pt" height="700.000000pt" viewBox="0 0 700.000000 700.000000"
 preserveAspectRatio="xMidYMid meet">
<metadata>
Created by potrace 1.14, written by Peter Selinger 2001-2017
</metadata>
<g transform="translate(0.000000,700.000000) scale(0.100000,-0.100000)"
fill="#000000" stroke="none">
<path d="M0 3500 l0 -3500 3500 0 3500 0 0 3500 0 3500 -3500 0 -3500 0 0
-3500z m4080 2912 c7 -2 7 -2112 0 -2112 -3 0 -133 341 -289 758 -156 416
-287 762 -291 767 -8 9 -576 13 -583 4 -2 -2 -72 -188 -157 -414 -84 -225
-158 -423 -165 -440 -10 -24 -194 -513 -300 -800 -55 -149 -250 -670 -285
-760 -21 -55 -59 -156 -84 -225 -26 -69 -50 -134 -55 -145 -5 -11 -17 -42 -26
-70 -10 -27 -23 -63 -30 -80 -7 -16 -49 -129 -94 -250 -45 -121 -86 -229 -91
-240 -12 -27 -452 -1206 -457 -1225 -4 -13 32 -15 282 -14 160 0 289 5 294 10
5 5 104 265 222 579 117 314 214 572 216 574 4 5 1848 8 1878 3 20 -3 20 -11
19 -860 -1 -471 -2 -864 -3 -873 -1 -14 -172 -15 -1749 -15 l-1748 0 1 2910
c1 1601 3 2914 3 2917 2 4 3477 5 3492 1z m-850 -1407 c0 -5 15 -50 34 -100
92 -239 126 -331 126 -337 0 -3 8 -23 17 -44 9 -22 17 -41 18 -44 4 -18 30
-86 41 -108 8 -15 14 -31 14 -37 0 -5 11 -37 25 -70 13 -33 115 -303 225 -600
111 -297 208 -554 216 -572 8 -17 14 -35 14 -41 0 -5 9 -29 19 -53 11 -24 21
-53 23 -63 3 -19 -11 -20 -790 -20 -437 -1 -796 2 -798 5 -2 4 12 49 32 100
19 52 39 105 44 119 4 14 112 302 239 640 128 338 287 762 354 941 102 274
124 324 134 310 7 -9 12 -20 13 -26z"/>
</g>
</svg>
