<svg width="40" height="40" viewBox="0 0 40 40" fill="none" xmlns="http://www.w3.org/2000/svg">
    <path d="M38.3439 12.185C37.3248 9.8246 35.9236 7.6555 34.0764 5.8054C32.2293 3.9553 30.1274 2.5518 27.707 1.5311C25.2866 0.5104 22.6752 0 19.9363 0C17.2611 0 14.6497 0.5104 12.1656 1.5949C9.8089 2.6156 7.6433 4.0191 5.7962 5.8692C3.949 7.7193 2.5478 9.8246 1.5287 12.2488C0.5096 14.673 0 17.2887 0 19.9681C0 22.6475 0.5096 25.2632 1.5924 27.7512C2.6115 30.1116 4.0127 32.2807 5.8599 34.1308C7.707 35.9809 9.8089 37.3844 12.2293 38.4051C14.7134 39.4258 17.3248 40 20 40C22.6752 40 25.2866 39.4896 27.7707 38.4051C30.1274 37.3844 32.293 35.9809 34.1401 34.1308C35.9873 32.2807 37.3885 30.1754 38.4076 27.7512C39.4268 25.2632 40 22.6475 40 19.9681C39.9363 17.2887 39.4268 14.673 38.3439 12.185ZM13.3121 18.118C14.1401 14.9282 17.0701 12.5678 20.5096 12.5678H34.3949C35.2866 14.2903 35.8599 16.1404 36.051 18.118H13.3121ZM36.051 21.882C35.7962 23.8596 35.2866 25.7097 34.3949 27.4322H20.5096C17.0701 27.4322 14.1401 25.0718 13.3121 21.882H36.051ZM8.4713 8.4848C11.5287 5.4226 15.6051 3.7002 19.9363 3.7002C24.2675 3.7002 28.3439 5.3589 31.4013 8.4848C31.465 8.5486 31.5924 8.6762 31.6561 8.74H20.5096C17.5159 8.74 14.7134 9.8884 12.6115 11.9936C10.9554 13.6523 9.8726 15.7576 9.4904 18.0542H3.8854C4.2675 14.4817 5.8599 11.1643 8.4713 8.4848ZM19.9363 36.236C15.6051 36.236 11.5287 34.5774 8.4713 31.4514C5.8599 28.8357 4.2675 25.5183 3.8854 21.882H9.5541C9.9363 24.1786 11.0191 26.2839 12.6752 27.9426C14.7771 30.0478 17.5796 31.1962 20.5732 31.1962H31.7834C31.7197 31.3238 31.5924 31.3876 31.5287 31.4514C28.3439 34.5136 24.2675 36.236 19.9363 36.236Z" fill="black"/>
</svg>